<?xml version="1.0" standalone="no"?><!DOCTYPE svg PUBLIC "-//W3C//DTD SVG 1.1//EN" "http://www.w3.org/Graphics/SVG/1.1/DTD/svg11.dtd"><svg t="1582168371981" class="icon" viewBox="0 0 1024 1024" version="1.1" xmlns="http://www.w3.org/2000/svg" p-id="4214" xmlns:xlink="http://www.w3.org/1999/xlink" width="200" height="200"><defs><style type="text/css"></style></defs><path d="M772.8 855.6V197.1c0-11.5-3.1-22.9-8.9-32.8l-38.5-65.9c-8.2-14.1-23.3-22.7-39.6-22.7h-406c-16.3 0-31.3 8.6-39.6 22.7l-38.5 65.9c-5.8 10-8.9 21.3-8.9 32.8v658.5c0 20.7 16.8 37.5 37.5 37.5h504.9c20.8 0 37.6-16.8 37.6-37.5z" fill="#A9EBFF" p-id="4215"></path><path d="M763.9 164.3l-38.5-65.9c-8.2-14.1-23.3-22.7-39.6-22.7h-26.6c1.1 1.5 2.2 3.1 3.2 4.7l38.5 65.9c5.8 10 8.9 21.3 8.9 32.8v658.5c0 20.7-16.8 37.5-37.5 37.5h-474c6.6 10.8 18.5 18 32.1 18h504.9c20.7 0 37.5-16.8 37.5-37.5V197.1c0-11.5-3.1-22.9-8.9-32.8zM674.1 967.5H291.5c-12.3 0-23.8-5.9-31-15.9l-23.9-33.2c-4.6-10.3 3-21.9 14.3-21.9h463.9c11.3 0 18.8 11.6 14.3 21.9l-23.9 33.2c-7.3 10-18.9 15.9-31.1 15.9z" fill="#42B3C6" p-id="4216"></path><path d="M597 461.6c22.7-1.2 44.4 0.2 65.3 4.3C642.6 385.6 570.2 326 483.8 326 382.3 326 300 408.3 300 509.8c0 10.4 0.9 20.6 2.5 30.5 33.2-2 72.8-15.7 122.7-34.2 54.6-20.3 111.2-41.3 171.8-44.5z" fill="#30B6F9" p-id="4217"></path><path d="M600.6 528.9c-50.3 2.7-102 21.9-152 40.4-42.1 15.6-82.3 30.5-121.8 36.2 32.3 52.8 90.5 88.1 156.9 88.1 92.6 0 169.2-68.4 181.9-157.5-20.4-6.1-41.9-8.4-65-7.2z" fill="#FF4D4D" p-id="4218"></path><path d="M776.9 156.7l-38.5-65.9-0.1-0.1h23.2c8.3 0 15-6.7 15-15s-6.7-15-15-15H204.2c-8.3 0-15 6.7-15 15s6.7 15 15 15h23.2l-0.1 0.1-38.5 65.9c-7.2 12.2-10.9 26.2-10.9 40.4v658.5c0 25.7 18.5 47.1 42.9 51.6-0.9 5.8-0.2 11.7 2.2 17.3 0.4 1 0.9 1.9 1.5 2.7l23.9 33.2c10 13.8 26.1 22.1 43.2 22.1h382.5c17 0 33.2-8.3 43.2-22.1l23.9-33.2c0.6-0.8 1.1-1.7 1.5-2.7 2.4-5.5 3.2-11.5 2.2-17.3 24.4-4.6 42.9-26 42.9-51.6V197.1c0-14.2-3.8-28.2-10.9-40.4zM253.1 106c5.5-9.4 15.7-15.3 26.6-15.3h406.1c10.9 0 21.1 5.8 26.6 15.3l34.2 58.5H218.9l34.2-58.5z m439.8 836.8c-4.4 6-11.4 9.6-18.8 9.6H291.5c-7.4 0-14.5-3.6-18.8-9.6l-22.4-31c0.2-0.3 0.3-0.3 0.5-0.3h463.9c0.2 0 0.3 0 0.5 0.3l-22.3 31z m64.9-87.2c0 12.4-10.1 22.5-22.5 22.5h-505c-12.4 0-22.5-10.1-22.5-22.5V197.1c0-0.9 0-1.8 0.1-2.6h549.9c0 0.9 0.1 1.7 0.1 2.6v658.5z" fill="#3F2D20" p-id="4219"></path><path d="M597.5 471.6c21.8-1.2 42.9 0.2 62.8 4.1 3.3 0.7 6.8-0.4 9.2-2.9 2.4-2.5 3.3-6 2.5-9.3-10.1-41.4-34.2-78.9-67.7-105.5-34.6-27.5-76.2-42-120.5-42C376.9 316 290 402.9 290 509.8c0 10.7 0.9 21.6 2.7 32.2 0.8 4.8 5 8.3 9.9 8.3h0.6c34.9-2.1 75.8-16.4 125.6-34.8 53.8-20.1 109.7-40.8 168.7-43.9zM311 529.5c-0.7-6.6-1.1-13.2-1.1-19.7 0-95.8 78-173.8 173.8-173.8 39.7 0 77.1 13 108.1 37.7 26 20.7 45.7 48.6 56.4 79.8-16.7-2.2-34.1-2.8-51.8-1.8-62.1 3.3-119.4 24.6-174.8 45.1-43.7 16.1-80.2 29-110.6 32.7zM668.5 526.5c-21.5-6.4-43.9-8.9-68.5-7.6-51.9 2.8-104.3 22.2-154.9 41-41.8 15.5-81.2 30.1-119.7 35.7-3.3 0.5-6.2 2.6-7.6 5.6-1.4 3-1.2 6.6 0.5 9.5 17 27.8 40.9 51.1 69.2 67.3 29.2 16.7 62.4 25.5 96.2 25.5 46.9 0 92.2-17 127.5-47.8 34.9-30.5 57.8-72.5 64.4-118.3 0.7-4.8-2.3-9.5-7.1-10.9zM598 640.7c-31.6 27.7-72.2 42.9-114.3 42.9-30.3 0-60.2-7.9-86.3-22.9-21-12-39.4-28.5-53.7-47.9 35.4-7 71-20.2 108.4-34.1 49.3-18.3 100.2-37.2 149-39.8 19-1 36.4 0.5 53.2 4.5-7.4 37.5-27.1 71.8-56.3 97.3z" fill="#3F2D20" p-id="4220"></path></svg>